<svg id="Layer_1" data-name="Layer 1" xmlns="http://www.w3.org/2000/svg" viewBox="0 0 60 60"><defs><style>.cls-1{opacity:0.2;}.cls-2{fill:#696969;}</style></defs><g id="TlxIEJ.tif" class="cls-1"><path class="cls-2" d="M35.87,37.19a13.29,13.29,0,0,1-4.42-.81,22.33,22.33,0,0,1-8.6-5.25,10.64,10.64,0,0,1-2.56-3.72A3.59,3.59,0,0,1,20.15,25a2.75,2.75,0,0,1,1.53-1.64,6.26,6.26,0,0,1,3.25-.52A16.55,16.55,0,0,1,31,24.6a22.06,22.06,0,0,1,6.25,4.45,11.64,11.64,0,0,1,2.15,2.83A4.46,4.46,0,0,1,40,34a3,3,0,0,1-1.81,2.76A5.31,5.31,0,0,1,35.87,37.19ZM29,24.83a11,11,0,0,0-1.24,2.65c-.15.47-.28,1-.45,1.42a.36.36,0,0,1-.67.1,2.15,2.15,0,0,1-.35-.75,10.36,10.36,0,0,1-.19-3.19c0-.33.06-.66.09-1a9.36,9.36,0,0,0-2.53-.18,3.62,3.62,0,0,0-1.66.48,1.66,1.66,0,0,0-.85,1.16,3,3,0,0,0,.27,1.76,10.52,10.52,0,0,0,2.13,3,16.84,16.84,0,0,0,3.71,3,18.36,18.36,0,0,0,8.14,2.82,5.54,5.54,0,0,0,2.32-.28A1.75,1.75,0,0,0,39,34a3.88,3.88,0,0,0-.23-1.05A5.91,5.91,0,0,0,38,31.51a3,3,0,0,0-1.72.92c-.28.29-.54.59-.82.88a1.26,1.26,0,0,1-.32.25.38.38,0,0,1-.55-.21,1.47,1.47,0,0,1-.07-.62,7.62,7.62,0,0,1,.38-1.42c.29-.73.66-1.44,1-2.22l-2.52-2c-.28.26-.54.45-.76.7a12,12,0,0,0-1.41,2.29,2.75,2.75,0,0,1-.42.59.46.46,0,0,1-.79-.09.91.91,0,0,1-.11-.22,6.07,6.07,0,0,1-.21-1,7.23,7.23,0,0,1,.43-2.95c.1-.3.22-.6.35-.94Zm1.78,4,1.7-2.26L31.35,26A5.8,5.8,0,0,0,30.74,28.8Zm-3.59-4.53L27,26.18h.07l.8-1.69Zm9.49,5.62L36,31.21l0,0,1.24-.62Z"/></g><g id="TlxIEJ.tif-2" data-name="TlxIEJ.tif" class="cls-1"><path class="cls-2" d="M-8.19,6.75A3,3,0,0,1-10,4a4.46,4.46,0,0,1,.56-2.11A11.64,11.64,0,0,1-7.29-.95,22.06,22.06,0,0,1-1-5.4,16.55,16.55,0,0,1,5.07-7.17a6.26,6.26,0,0,1,3.25.52A2.75,2.75,0,0,1,9.85-5a3.59,3.59,0,0,1-.14,2.42A10.64,10.64,0,0,1,7.15,1.13a22.33,22.33,0,0,1-8.6,5.25,13.29,13.29,0,0,1-4.42.81A5.31,5.31,0,0,1-8.19,6.75ZM-.47-4.52c.13.34.25.64.35.94a7.23,7.23,0,0,1,.43,3A6.07,6.07,0,0,1,.1.4.91.91,0,0,1,0,.62.46.46,0,0,1-.8.71,2.75,2.75,0,0,1-1.22.12,12,12,0,0,0-2.63-2.17c-.22-.25-.48-.44-.76-.7l-2.52,2c.37.78.74,1.49,1,2.22A7.62,7.62,0,0,1-4.5,2.73a1.47,1.47,0,0,1-.07.62.38.38,0,0,1-.55.21,1.26,1.26,0,0,1-.32-.25C-5.72,3-6,2.72-6.26,2.43A3,3,0,0,0-8,1.51a5.91,5.91,0,0,0-.75,1.43A3.88,3.88,0,0,0-9,4,1.75,1.75,0,0,0-7.68,5.82a5.54,5.54,0,0,0,2.32.28A18.36,18.36,0,0,0,2.78,3.28a16.84,16.84,0,0,0,3.71-3,10.52,10.52,0,0,0,2.13-3,3,3,0,0,0,.27-1.76A1.66,1.66,0,0,0,8-5.63a3.62,3.62,0,0,0-1.66-.48,9.36,9.36,0,0,0-2.53.18c0,.33.07.66.09,1a10.36,10.36,0,0,1-.19,3.19A2.15,2.15,0,0,1,3.4-1a.36.36,0,0,1-.67-.1c-.17-.46-.3-.95-.45-1.42A11,11,0,0,0,1-5.17ZM-1.35-4l-1.09.58L-.74-1.2A5.8,5.8,0,0,0-1.35-4ZM2.11-5.5l.8,1.69H3L2.85-5.73ZM-7.31.63l1.24.62.05,0L-6.64-.11Z"/></g><g id="TlxIEJ.tif-3" data-name="TlxIEJ.tif" class="cls-1"><path class="cls-2" d="M51.81,6.75A3,3,0,0,1,50,4a4.46,4.46,0,0,1,.56-2.11A11.64,11.64,0,0,1,52.71-.95,22.06,22.06,0,0,1,59-5.4a16.55,16.55,0,0,1,6.11-1.77,6.26,6.26,0,0,1,3.25.52A2.75,2.75,0,0,1,69.85-5a3.59,3.59,0,0,1-.14,2.42,10.64,10.64,0,0,1-2.56,3.72,22.33,22.33,0,0,1-8.6,5.25,13.29,13.29,0,0,1-4.42.81A5.31,5.31,0,0,1,51.81,6.75ZM59.53-4.52c.13.34.25.64.35.94a7.23,7.23,0,0,1,.43,3,6.07,6.07,0,0,1-.21,1A.91.91,0,0,1,60,.62a.46.46,0,0,1-.79.09,2.75,2.75,0,0,1-.42-.59,12,12,0,0,0-1.41-2.29c-.22-.25-.48-.44-.76-.7l-2.52,2c.37.78.74,1.49,1,2.22a7.62,7.62,0,0,1,.38,1.42,1.47,1.47,0,0,1-.07.62.38.38,0,0,1-.55.21,1.26,1.26,0,0,1-.32-.25c-.28-.29-.54-.59-.82-.88A3,3,0,0,0,52,1.51a5.91,5.91,0,0,0-.75,1.43A3.88,3.88,0,0,0,51,4a1.75,1.75,0,0,0,1.28,1.83,5.54,5.54,0,0,0,2.32.28,18.36,18.36,0,0,0,8.14-2.82,16.84,16.84,0,0,0,3.71-3,10.52,10.52,0,0,0,2.13-3,3,3,0,0,0,.27-1.76A1.66,1.66,0,0,0,68-5.63a3.62,3.62,0,0,0-1.66-.48,9.36,9.36,0,0,0-2.53.18c0,.33.07.66.09,1a10.36,10.36,0,0,1-.19,3.19A2.15,2.15,0,0,1,63.4-1a.36.36,0,0,1-.67-.1c-.17-.46-.3-.95-.45-1.42A11,11,0,0,0,61-5.17ZM58.65-4l-1.09.58,1.7,2.26A5.8,5.8,0,0,0,58.65-4ZM62.11-5.5l.8,1.69H63l-.13-1.91ZM52.69.63l1.24.62,0,0L53.36-.11Z"/></g><g id="TlxIEJ.tif-4" data-name="TlxIEJ.tif" class="cls-1"><path class="cls-2" d="M-8.19,66.75A3,3,0,0,1-10,64a4.46,4.46,0,0,1,.56-2.11,11.64,11.64,0,0,1,2.15-2.83A22.06,22.06,0,0,1-1,54.6a16.55,16.55,0,0,1,6.11-1.77,6.26,6.26,0,0,1,3.25.52A2.75,2.75,0,0,1,9.85,55a3.59,3.59,0,0,1-.14,2.42,10.64,10.64,0,0,1-2.56,3.72,22.33,22.33,0,0,1-8.6,5.25,13.29,13.29,0,0,1-4.42.81A5.31,5.31,0,0,1-8.19,66.75ZM-.47,55.48c.13.34.25.64.35.94a7.23,7.23,0,0,1,.43,2.95,6.07,6.07,0,0,1-.21,1,.91.91,0,0,1-.11.22.46.46,0,0,1-.79.09,2.75,2.75,0,0,1-.42-.59,12,12,0,0,0-1.41-2.29c-.22-.25-.48-.44-.76-.7l-2.52,2c.37.78.74,1.49,1,2.22a7.62,7.62,0,0,1,.38,1.42,1.47,1.47,0,0,1-.07.62.38.38,0,0,1-.55.21,1.26,1.26,0,0,1-.32-.25c-.28-.29-.54-.59-.82-.88A3,3,0,0,0-8,61.51a5.91,5.91,0,0,0-.75,1.43A3.88,3.88,0,0,0-9,64a1.75,1.75,0,0,0,1.28,1.83,5.54,5.54,0,0,0,2.32.28,18.36,18.36,0,0,0,8.14-2.82,16.84,16.84,0,0,0,3.71-3,10.52,10.52,0,0,0,2.13-3,3,3,0,0,0,.27-1.76A1.66,1.66,0,0,0,8,54.37a3.62,3.62,0,0,0-1.66-.48,9.36,9.36,0,0,0-2.53.18c0,.33.07.66.09,1a10.36,10.36,0,0,1-.19,3.19A2.15,2.15,0,0,1,3.4,59a.36.36,0,0,1-.67-.1c-.17-.46-.3-.95-.45-1.42A11,11,0,0,0,1,54.83Zm-.88.48-1.09.58,1.7,2.26A5.8,5.8,0,0,0-1.35,56ZM2.11,54.5l.8,1.69H3l-.13-1.91Zm-9.42,6.13,1.24.62.05,0-.62-1.32Z"/></g><g id="TlxIEJ.tif-5" data-name="TlxIEJ.tif" class="cls-1"><path class="cls-2" d="M51.81,66.75A3,3,0,0,1,50,64a4.46,4.46,0,0,1,.56-2.11,11.64,11.64,0,0,1,2.15-2.83A22.06,22.06,0,0,1,59,54.6a16.55,16.55,0,0,1,6.11-1.77,6.26,6.26,0,0,1,3.25.52A2.75,2.75,0,0,1,69.85,55a3.59,3.59,0,0,1-.14,2.42,10.64,10.64,0,0,1-2.56,3.72,22.33,22.33,0,0,1-8.6,5.25,13.29,13.29,0,0,1-4.42.81A5.31,5.31,0,0,1,51.81,66.75Zm7.72-11.27c.13.34.25.64.35.94a7.23,7.23,0,0,1,.43,2.95,6.07,6.07,0,0,1-.21,1,.91.91,0,0,1-.11.22.46.46,0,0,1-.79.09,2.75,2.75,0,0,1-.42-.59,12,12,0,0,0-1.41-2.29c-.22-.25-.48-.44-.76-.7l-2.52,2c.37.78.74,1.49,1,2.22a7.62,7.62,0,0,1,.38,1.42,1.47,1.47,0,0,1-.07.62.38.38,0,0,1-.55.21,1.26,1.26,0,0,1-.32-.25c-.28-.29-.54-.59-.82-.88A3,3,0,0,0,52,61.51a5.91,5.91,0,0,0-.75,1.43A3.88,3.88,0,0,0,51,64a1.75,1.75,0,0,0,1.28,1.83,5.54,5.54,0,0,0,2.32.28,18.36,18.36,0,0,0,8.14-2.82,16.84,16.84,0,0,0,3.71-3,10.52,10.52,0,0,0,2.13-3,3,3,0,0,0,.27-1.76A1.66,1.66,0,0,0,68,54.37a3.62,3.62,0,0,0-1.66-.48,9.36,9.36,0,0,0-2.53.18c0,.33.07.66.09,1a10.36,10.36,0,0,1-.19,3.19,2.15,2.15,0,0,1-.35.75.36.36,0,0,1-.67-.1c-.17-.46-.3-.95-.45-1.42A11,11,0,0,0,61,54.83Zm-.88.48-1.09.58,1.7,2.26A5.8,5.8,0,0,0,58.65,56Zm3.46-1.46.8,1.69H63l-.13-1.91Zm-9.42,6.13,1.24.62,0,0-.62-1.32Z"/></g></svg>