<svg xmlns="http://www.w3.org/2000/svg" viewBox="0 0 233.23 233.23"><defs><style>.cls-1{fill:#f9cbcb;}.cls-2{fill:#fff;}.cls-3{fill:#7d6455;}</style></defs><g id="Layer_2" data-name="Layer 2"><g id="Layer_1-2" data-name="Layer 1"><circle class="cls-1" cx="116.61" cy="116.61" r="113.69"/><path class="cls-2" d="M116.61,5.84A110.78,110.78,0,1,1,5.84,116.61,110.78,110.78,0,0,1,116.61,5.84m0-5.84A116.62,116.62,0,1,0,233.23,116.61,116.74,116.74,0,0,0,116.61,0Z"/><path class="cls-3" d="M180.61,72.25a13.49,13.49,0,0,1,.1,16.91,7.19,7.19,0,0,1-1.28,1.54c-1.51,1.06-1.57,2.53-1.57,4.17q.06,39.19,0,78.36c0,.5,0,1,0,1.5a3.42,3.42,0,0,1-3.41,3.33c-.42,0-.84,0-1.26,0H60.05c-3.54,0-4.68-1.12-4.68-4.61q0-39.75,0-79.48a3.79,3.79,0,0,0-1.14-2.87c-3.35-3.51-5.35-7.57-4.46-12.59A15.71,15.71,0,0,1,54.66,70c4.68-4.58,10.45-7.31,16.53-9.41a91.6,91.6,0,0,1,27.4-5c11.5-.32,23-.54,34.51-.16,11.66.38,23.11,2.41,33.91,7.14C172.23,64.78,177,67.64,180.61,72.25Zm-22.92,13a6.62,6.62,0,0,0,.2-8.73c-2.66-3.57-6.42-5.69-10.37-7.44-11.13-4.9-22.93-6.57-35-7A124,124,0,0,0,90,63.21a81.32,81.32,0,0,0-21.93,6,28.37,28.37,0,0,0-9.2,6.19c-2.81,3-3.25,6.38-1.06,9.4a14.79,14.79,0,0,0,2.47,2.65,4.9,4.9,0,0,1,1.91,4.11q-.06,39,0,78v1.62h91.45v-79c0-.38,0-.76,0-1.13a4,4,0,0,1,1.48-3.18A21.51,21.51,0,0,0,157.69,85.24Z"/><path class="cls-2" d="M157.89,76.51a6.62,6.62,0,0,1-.2,8.73,21.51,21.51,0,0,1-2.56,2.58A4,4,0,0,0,153.65,91c0,.37,0,.75,0,1.13v79H62.2v-1.62q0-39,0-78a4.9,4.9,0,0,0-1.91-4.11,14.79,14.79,0,0,1-2.47-2.65c-2.19-3-1.75-6.42,1.06-9.4a28.37,28.37,0,0,1,9.2-6.19,81.32,81.32,0,0,1,21.93-6,124,124,0,0,1,22.53-1.16c12,.45,23.82,2.12,35,7C151.47,70.82,155.23,72.94,157.89,76.51Z"/><path class="cls-3" d="M90.08,102.44a5,5,0,0,0-5,5v3.74a5,5,0,0,0,10,0v-3.74A5,5,0,0,0,90.08,102.44Z"/><path class="cls-3" d="M121.52,102.44a5,5,0,0,0-5,5v3.74a5,5,0,0,0,10,0v-3.74A5,5,0,0,0,121.52,102.44Z"/></g></g></svg>