<svg xmlns="http://www.w3.org/2000/svg" viewBox="0 0 337.02 70.98"><defs><style>.cls-1{fill:#7c6354;}</style></defs><g id="Layer_2" data-name="Layer 2"><g id="brown"><path class="cls-1" d="M32.39,22.39A9.7,9.7,0,0,1,41,27.14c.57,1,1.58,3.24,1.58,7.63V53.49H35.56V36.79c0-3.39-.36-4.76-.64-5.4a4,4,0,0,0-4-2.67A5.2,5.2,0,0,0,26.71,31c-1.23,1.73-1.37,4.32-1.37,6.92V53.49H18.28V36.79c0-3.39-.36-4.76-.65-5.4a4,4,0,0,0-4-2.67A5.24,5.24,0,0,0,9.42,31c-1.22,1.73-1.36,4.32-1.36,6.92V53.49H1V23.18H8.06V26a9.33,9.33,0,0,1,7.49-3.6,8.89,8.89,0,0,1,7.84,4.46,10.74,10.74,0,0,1,9-4.46m0-1a11.87,11.87,0,0,0-8.93,3.77,9.87,9.87,0,0,0-7.91-3.77A10.12,10.12,0,0,0,9.06,23.6v-.42a1,1,0,0,0-1-1H1a1,1,0,0,0-1,1V53.49a1,1,0,0,0,1,1H8.06a1,1,0,0,0,1-1V37.87c0-2.26.09-4.79,1.18-6.34a4.23,4.23,0,0,1,3.36-1.81,3,3,0,0,1,3.1,2s0,0,0,.05c.26.58.56,1.91.56,5v16.7a1,1,0,0,0,1,1h7.06a1,1,0,0,0,1-1V37.87c0-2.26.09-4.8,1.18-6.34a4.23,4.23,0,0,1,3.36-1.81,3,3,0,0,1,3.1,2l0,.05c.26.58.56,1.91.56,5v16.7a1,1,0,0,0,1,1h7.06a1,1,0,0,0,1-1V34.77a16.48,16.48,0,0,0-1.72-8.13,10.71,10.71,0,0,0-9.51-5.25Z"/><path class="cls-1" d="M83.44,23.18h0m0,0L59.32,70H51.4L62.56,48.74l-13-25.56h8.5l8.64,17.71,8.78-17.71h7.92m0-1H75.52a1,1,0,0,0-.89.55l-7.89,15.9L59,22.74a1,1,0,0,0-.9-.56H49.6a1,1,0,0,0-.89,1.45l12.73,25.1L50.52,69.52a1,1,0,0,0,0,1,1,1,0,0,0,.86.48h7.92a1,1,0,0,0,.89-.54L84.3,23.69a1,1,0,0,0-.85-1.51Zm0,2h0Z"/><path class="cls-1" d="M108.35,34.48v7.35H91.07V34.48h17.28m0-1H91.07a1,1,0,0,0-1,1v7.35a1,1,0,0,0,1,1h17.28a1,1,0,0,0,1-1V34.48a1,1,0,0,0-1-1Z"/><path class="cls-1" d="M127.07,1V26.71a11,11,0,0,1,9-4.32c8,0,14.76,6,14.76,15.91,0,8.35-5.32,16.13-14.68,16.13a11.66,11.66,0,0,1-9.08-4.11v3.17h-7V1h7m8.14,47.09c5.11,0,8.42-4.39,8.42-9.65s-3.31-9.72-8.42-9.72c-4.47,0-8.57,3.17-8.57,9.8,0,6.33,4.1,9.57,8.57,9.57M127.07,0h-7a1,1,0,0,0-1,1V53.49a1,1,0,0,0,1,1h7a1,1,0,0,0,1-1v-.81a12.73,12.73,0,0,0,8.08,2.75,14.68,14.68,0,0,0,11.62-5.29,18.4,18.4,0,0,0,4.06-11.84c0-9.8-6.62-16.91-15.76-16.91a12.38,12.38,0,0,0-8,2.82V1a1,1,0,0,0-1-1Zm8.14,47.09c-3.77,0-7.57-2.65-7.57-8.57,0-6.49,4.08-8.8,7.57-8.8,4.37,0,7.42,3.59,7.42,8.72,0,4.3-2.55,8.65-7.42,8.65Z"/><path class="cls-1" d="M175,22.39a11,11,0,0,1,9,4.32V23.18H191V53.49H184V50.32a11.64,11.64,0,0,1-9.07,4.11c-9.36,0-14.69-7.78-14.69-16.13,0-9.87,6.77-15.91,14.76-15.91m.87,25.7c4.46,0,8.57-3.24,8.57-9.57,0-6.63-4.11-9.8-8.57-9.8-5.12,0-8.43,4.32-8.43,9.72s3.31,9.65,8.43,9.65M175,21.39c-9.13,0-15.76,7.11-15.76,16.91a18.41,18.41,0,0,0,4.07,11.84,14.68,14.68,0,0,0,11.62,5.29A12.7,12.7,0,0,0,183,52.68v.81a1,1,0,0,0,1,1H191a1,1,0,0,0,1-1V23.18a1,1,0,0,0-1-1H184a1,1,0,0,0-1,1v1a12.38,12.38,0,0,0-8-2.82Zm.87,25.7c-4.88,0-7.43-4.35-7.43-8.65,0-5.13,3.06-8.72,7.43-8.72,3.49,0,7.57,2.31,7.57,8.8,0,5.92-3.81,8.57-7.57,8.57Z"/><path class="cls-1" d="M210.59,1V33.33l9.87-10.15h9.36l-13,12.6,14,17.71h-8.92l-9.94-13-1.3,1.3V53.49h-7.05V1h7.05m19.23,22.18h0M210.59,0h-7.05a1,1,0,0,0-1,1V53.49a1,1,0,0,0,1,1h7.05a1,1,0,0,0,1-1V42.24l.2-.19L221,54.1a1,1,0,0,0,.8.39h8.92a1,1,0,0,0,.79-1.62l-13.41-17,12.36-11.95a1,1,0,0,0-.67-1.74h-9.36a1,1,0,0,0-.72.3l-8.15,8.39V1a1,1,0,0,0-1-1Z"/><path class="cls-1" d="M251.56,22.39a13,13,0,0,1,9.72,4c3.89,4,4.25,9.65,4.25,12.81V40H243.78a10,10,0,0,0,2.6,6.12,7.22,7.22,0,0,0,5.4,1.94,7.42,7.42,0,0,0,4.82-1.51,11,11,0,0,0,2.81-3.31l5.9,3.31a15.76,15.76,0,0,1-5.11,5.54,16.64,16.64,0,0,1-8.93,2.31c-4,0-7.34-1-10.22-3.89A16.28,16.28,0,0,1,236.58,39a17.77,17.77,0,0,1,4.83-12.46,13.8,13.8,0,0,1,10.15-4.1m-7.27,11.88h14a7.35,7.35,0,0,0-2.16-4.11,7.35,7.35,0,0,0-9.72.22,7.87,7.87,0,0,0-2.16,3.89m7.27-12.88a14.84,14.84,0,0,0-10.86,4.39A18.92,18.92,0,0,0,235.58,39a17.17,17.17,0,0,0,4.76,12.3c2.85,2.85,6.33,4.18,10.93,4.18A17.63,17.63,0,0,0,260.74,53a16.88,16.88,0,0,0,5.45-5.89,1,1,0,0,0,.09-.76,1,1,0,0,0-.48-.6l-5.9-3.31a1,1,0,0,0-.49-.13,1,1,0,0,0-.87.51,10,10,0,0,1-2.55,3,6.43,6.43,0,0,1-4.21,1.3,6.3,6.3,0,0,1-4.7-1.65A8.7,8.7,0,0,1,244.92,41h20.61a1,1,0,0,0,1-1v-.87c0-5.93-1.48-10.35-4.53-13.51a14.06,14.06,0,0,0-10.44-4.26Zm-5.89,11.88a6.47,6.47,0,0,1,1.46-2.16,6.34,6.34,0,0,1,8.36-.21A6,6,0,0,1,257,33.27Z"/><path class="cls-1" d="M290.8,22.39a10.42,10.42,0,0,1,5.55,1.44l-2.88,6.4a6.47,6.47,0,0,0-3.6-1.08,5.51,5.51,0,0,0-4.4,1.66c-1.94,2.09-1.94,5-1.94,7V53.49h-7.06V23.18h7.06v2.73a12.34,12.34,0,0,1,3-2.52,8.18,8.18,0,0,1,4.32-1m0-1A9,9,0,0,0,286,22.53a10.65,10.65,0,0,0-1.45,1v-.36a1,1,0,0,0-1-1h-7.06a1,1,0,0,0-1,1V53.49a1,1,0,0,0,1,1h7.06a1,1,0,0,0,1-1V37.8c0-1.9,0-4.51,1.68-6.31a4.48,4.48,0,0,1,3.66-1.34,5.39,5.39,0,0,1,3.06.93,1,1,0,0,0,.54.15.9.9,0,0,0,.28,0,1,1,0,0,0,.63-.55l2.88-6.4a1,1,0,0,0-.4-1.27,11.4,11.4,0,0,0-6.06-1.58Z"/><path class="cls-1" d="M336,23.18h0m0,0L311.9,70H304l11.16-21.24-13-25.56h8.5l8.64,17.71,8.79-17.71H336m0-1H328.1a1,1,0,0,0-.9.55l-7.88,15.9-7.75-15.89a1,1,0,0,0-.9-.56h-8.5a1,1,0,0,0-.85.47,1,1,0,0,0,0,1L314,48.73,303.09,69.52a1,1,0,0,0,0,1A1,1,0,0,0,304,71h7.92a1,1,0,0,0,.88-.54l24.1-46.75a1,1,0,0,0-.86-1.51Zm0,2Z"/></g></g></svg>